# xmcd
#
# Track frame offsets:
#	150
#	12081
#	24719
#	36794
#	48875
#	59751
#	70399
#	80105
#	91767
#	102865
#	114559
#	126209
#	137331
#	147960
#	158731
#	169741
#	183093
#	193387
#
# Disc length: 2772 seconds
#
# Revision: 0
# Processed by: cddbd v1.5.2PL0 Copyright (c) Steve Scherf et al.
# Submitted via: EasyCDDAExtractor 16.0.8.2
#
DISCID=f60ad212
DTITLE=Συλλογικός δίσκος - Όταν τα σλόου τα έλεγαν μπλουζ 2
DYEAR=2011
DGENRE=Ξένη σλόου
TTITLE0=The Platters - Only you
TTITLE1=Dinah Washington - Mad about the boy
TTITLE2=Elvis Presley - I want you, I need you, I love you
TTITLE3=Nat King Cole - Autumn leaves
TTITLE4=Ritchie Valens - Donna
TTITLE5=Pat Boone - April love
TTITLE6=Don and Dewey - Leaving it all up to you
TTITLE7=Ray Peterson - The wonder of you
TTITLE8=Sarah Vaughan - The thrilli is gone
TTITLE9=Gene Vincent - You'll never walk alone
TTITLE10=Chuck Willis - It's too late
TTITLE11=Johnny Ace - Pledging my love
TTITLE12=Lee Andrews and The Hearts - Tear drops
TTITLE13=The Platters - Red sails In the sunset
TTITLE14=Paul Anka - It's time to cry
TTITLE15=LaVem Baker - You'll be crying
TTITLE16=The Dubs - Could this be magic
TTITLE17=Sam Cooke - (I love you) For sentimental reasons
EXTD=
EXTT0=
EXTT1=
EXTT2=
EXTT3=
EXTT4=
EXTT5=
EXTT6=
EXTT7=
EXTT8=
EXTT9=
EXTT10=
EXTT11=
EXTT12=
EXTT13=
EXTT14=
EXTT15=
EXTT16=
EXTT17=
PLAYORDER=
